<svg width="24" height="24" viewBox="0 0 24 24" fill="none" xmlns="http://www.w3.org/2000/svg">
<path d="M19 11C19.5523 11 20 11.4477 20 12C20 12.5523 19.5523 13 19 13H5C4.44772 13 4 12.5523 4 12C4 11.4477 4.44772 11 5 11H19Z" fill="black"/>
<path d="M18.2929 11.2929C18.6834 10.9024 19.3164 10.9024 19.707 11.2929C20.0975 11.6834 20.0975 12.3164 19.707 12.707L13.707 18.707C13.3164 19.0975 12.6834 19.0975 12.2929 18.707C11.9024 18.3164 11.9024 17.6834 12.2929 17.2929L18.2929 11.2929Z" fill="black"/>
<path d="M12.2929 5.29289C12.6834 4.90237 13.3164 4.90237 13.707 5.29289L19.707 11.2929C20.0975 11.6834 20.0975 12.3164 19.707 12.707C19.3164 13.0975 18.6834 13.0975 18.2929 12.707L12.2929 6.70696C11.9024 6.31643 11.9024 5.68342 12.2929 5.29289Z" fill="black"/>
</svg>
