<svg width="24" height="24" viewBox="0 0 24 24" fill="none" xmlns="http://www.w3.org/2000/svg">
<path d="M16.289 7.208L6.52298 16.954C6.42964 17.0473 6.31498 17.0907 6.17898 17.084C6.04298 17.078 5.92798 17.028 5.83398 16.934C5.73998 16.84 5.69331 16.7287 5.69398 16.6C5.69464 16.4713 5.74131 16.36 5.83398 16.266L15.582 6.5H6.78898C6.64698 6.5 6.52798 6.452 6.43198 6.356C6.33598 6.26 6.28831 6.141 6.28898 5.999C6.28964 5.857 6.33731 5.73833 6.43198 5.643C6.52664 5.54767 6.64564 5.5 6.78898 5.5H16.481C16.7096 5.5 16.9013 5.57733 17.056 5.732C17.2106 5.88667 17.2883 6.07867 17.289 6.308V16C17.289 16.142 17.2406 16.2607 17.144 16.356C17.0473 16.4513 16.9286 16.4993 16.788 16.5C16.6473 16.5007 16.5286 16.4527 16.432 16.356C16.3353 16.2593 16.2873 16.1407 16.288 16L16.289 7.208Z" fill="#F84525"/>
</svg>
