<svg width="24" height="24" viewBox="0 0 24 24" fill="none" xmlns="http://www.w3.org/2000/svg">
<path d="M10.3535 5.64645C10.1583 5.45118 9.84175 5.45118 9.64648 5.64645L3.64648 11.6464C3.55272 11.7402 3.5 11.8674 3.5 12C3.5 12.1326 3.55272 12.2597 3.64648 12.3535L9.64648 18.3535C9.84175 18.5487 10.1583 18.5487 10.3535 18.3535C10.5488 18.1582 10.5488 17.8417 10.3535 17.6464L5.20703 12.5L20 12.5C20.2761 12.5 20.5 12.2761 20.5 12C20.5 11.7238 20.2761 11.5 20 11.5L5.20703 11.5L10.3535 6.35348L10.418 6.27535C10.5461 6.08127 10.5244 5.81731 10.3535 5.64645Z" fill="#1E1E1D"/>
</svg>
