<svg width="24" height="24" viewBox="0 0 24 24" fill="none" xmlns="http://www.w3.org/2000/svg">
<path d="M16.2891 7.208L6.5231 16.954C6.42977 17.0473 6.3151 17.0907 6.1791 17.084C6.0431 17.078 5.9281 17.028 5.8341 16.934C5.7401 16.84 5.69343 16.7287 5.6941 16.6C5.69477 16.4713 5.74143 16.36 5.8341 16.266L15.5821 6.5H6.7891C6.6471 6.5 6.5281 6.452 6.4321 6.356C6.3361 6.26 6.28843 6.141 6.2891 5.999C6.28977 5.857 6.33743 5.73833 6.4321 5.643C6.52677 5.54767 6.64577 5.5 6.7891 5.5H16.4811C16.7098 5.5 16.9014 5.57733 17.0561 5.732C17.2108 5.88667 17.2884 6.07867 17.2891 6.308V16C17.2891 16.142 17.2408 16.2607 17.1441 16.356C17.0474 16.4513 16.9288 16.4993 16.7881 16.5C16.6474 16.5007 16.5288 16.4527 16.4321 16.356C16.3354 16.2593 16.2874 16.1407 16.2881 16L16.2891 7.208Z" fill="white"/>
</svg>
