<svg width="24" height="24" viewBox="0 0 24 24" fill="none" xmlns="http://www.w3.org/2000/svg">
<path d="M19 11C19.5523 11 20 11.4477 20 12C20 12.5523 19.5523 13 19 13H5C4.44772 13 4 12.5523 4 12C4 11.4477 4.44772 11 5 11H19Z" fill="black"/>
<path d="M4.29289 11.2929C4.68342 10.9024 5.31643 10.9024 5.70696 11.2929L11.707 17.2929C12.0975 17.6834 12.0975 18.3164 11.707 18.707C11.3164 19.0975 10.6834 19.0975 10.2929 18.707L4.29289 12.707C3.90237 12.3164 3.90237 11.6834 4.29289 11.2929Z" fill="black"/>
<path d="M10.2929 5.29289C10.6834 4.90237 11.3164 4.90237 11.707 5.29289C12.0975 5.68342 12.0975 6.31643 11.707 6.70696L5.70696 12.707C5.31643 13.0975 4.68342 13.0975 4.29289 12.707C3.90237 12.3164 3.90237 11.6834 4.29289 11.2929L10.2929 5.29289Z" fill="black"/>
</svg>
