<svg width="24" height="24" viewBox="0 0 24 24" fill="none" xmlns="http://www.w3.org/2000/svg">
<path d="M4.83291 19.9998L1.98291 9.9998H7.74991L12.0139 3.5708L16.2389 9.9998H22.0169L19.1299 19.9998H4.83291ZM11.9999 15.9998C12.2679 15.9998 12.5016 15.9001 12.7009 15.7008C12.9002 15.5015 12.9999 15.2678 12.9999 14.9998C12.9999 14.7318 12.9002 14.4981 12.7009 14.2988C12.5016 14.0995 12.2679 13.9998 11.9999 13.9998C11.7319 13.9998 11.4982 14.0995 11.2989 14.2988C11.0996 14.4981 10.9999 14.7318 10.9999 14.9998C10.9999 15.2678 11.0996 15.5015 11.2989 15.7008C11.4982 15.9001 11.7319 15.9998 11.9999 15.9998ZM8.96391 9.9998H15.0309L11.9939 5.3768L8.96391 9.9998Z" fill="#F84525"/>
</svg>
