<svg width="24" height="24" viewBox="0 0 24 24" fill="none" xmlns="http://www.w3.org/2000/svg">
<path d="M12.02 11.02C14.2507 11.02 16.1413 10.6794 17.692 9.99802C19.2433 9.31735 20.019 8.49102 20.019 7.51902C20.019 6.54702 19.2433 5.72069 17.692 5.04002C16.1407 4.35935 14.25 4.01935 12.02 4.02002C9.79 4.02069 7.89567 4.36069 6.337 5.04002C4.77833 5.71935 3.99933 6.54602 4 7.52002C4.00067 8.49402 4.77967 9.32002 6.337 9.99802C7.89433 10.676 9.78833 11.0164 12.019 11.019M12 12.558C12.8113 12.558 13.6367 12.4934 14.476 12.364C15.3153 12.2354 16.104 12.0447 16.842 11.792C17.58 11.5394 18.23 11.2264 18.792 10.853C19.354 10.4797 19.763 10.048 20.019 9.55802V12.519C19.763 13.009 19.354 13.4407 18.792 13.814C18.2307 14.188 17.5807 14.5014 16.842 14.754C16.104 15.0067 15.3153 15.1974 14.476 15.326C13.6367 15.4547 12.8113 15.519 12 15.519C11.1887 15.519 10.3633 15.4547 9.524 15.326C8.68467 15.1974 7.899 15.0067 7.167 14.754C6.435 14.5014 5.78833 14.188 5.227 13.814C4.66567 13.44 4.25667 13.0087 4 12.52V9.55802C4.256 10.0474 4.665 10.479 5.227 10.853C5.78833 11.2264 6.435 11.5397 7.167 11.793C7.899 12.045 8.68467 12.2357 9.524 12.365C10.3633 12.4944 11.1887 12.5587 12 12.558ZM12 17.058C12.8113 17.058 13.6367 16.9937 14.476 16.865C15.3147 16.7357 16.1033 16.5447 16.842 16.292C17.5807 16.0394 18.2307 15.7264 18.792 15.353C19.3533 14.9797 19.7623 14.548 20.019 14.058V17C19.763 17.49 19.354 17.9217 18.792 18.295C18.2307 18.6684 17.5807 18.9817 16.842 19.235C16.104 19.4877 15.3153 19.6784 14.476 19.807C13.6367 19.9357 12.8113 20 12 20C11.1887 20 10.3633 19.9357 9.524 19.807C8.68467 19.6784 7.899 19.4877 7.167 19.235C6.435 18.9824 5.78833 18.669 5.227 18.295C4.66567 17.921 4.25667 17.4894 4 17V14.058C4.25667 14.5474 4.66567 14.979 5.227 15.353C5.78833 15.727 6.435 16.0404 7.167 16.293C7.899 16.5457 8.68467 16.7364 9.524 16.865C10.3633 16.9937 11.1887 17.058 12 17.058Z" fill="#F84525"/>
</svg>
