<svg width="24" height="24" viewBox="0 0 24 24" fill="none" xmlns="http://www.w3.org/2000/svg">
<path d="M8 16.5H16C16.142 16.5 16.2607 16.452 16.356 16.356C16.4513 16.26 16.4993 16.141 16.5 15.999C16.5007 15.857 16.4527 15.7383 16.356 15.643C16.2593 15.5477 16.1407 15.5 16 15.5H8C7.858 15.5 7.73933 15.548 7.644 15.644C7.54867 15.74 7.50067 15.859 7.5 16.001C7.49933 16.143 7.54733 16.2617 7.644 16.357C7.74067 16.4523 7.85933 16.5 8 16.5ZM11.5 11.38L9.754 9.64C9.66067 9.54667 9.547 9.49667 9.413 9.49C9.27833 9.48333 9.15467 9.53667 9.042 9.65C8.93867 9.754 8.887 9.87067 8.887 10C8.887 10.1293 8.94033 10.2473 9.047 10.354L11.435 12.742C11.5963 12.9033 11.7847 12.984 12 12.984C12.2153 12.984 12.404 12.9033 12.566 12.742L14.954 10.354C15.0473 10.2607 15.0983 10.147 15.107 10.013C15.1157 9.879 15.0633 9.75533 14.95 9.642C14.846 9.53867 14.7303 9.486 14.603 9.484C14.4757 9.482 14.3567 9.534 14.246 9.64L12.5 11.38V7C12.5 6.858 12.452 6.73933 12.356 6.644C12.26 6.54867 12.141 6.50067 11.999 6.5C11.857 6.49933 11.7383 6.54733 11.643 6.644C11.5477 6.74067 11.5 6.85933 11.5 7V11.38ZM12.003 21C10.759 21 9.589 20.764 8.493 20.292C7.39767 19.8193 6.44467 19.178 5.634 18.368C4.82333 17.558 4.18167 16.606 3.709 15.512C3.23633 14.418 3 13.2483 3 12.003C3 10.7577 3.23633 9.58767 3.709 8.493C4.181 7.39767 4.82133 6.44467 5.63 5.634C6.43867 4.82333 7.391 4.18167 8.487 3.709C9.583 3.23633 10.753 3 11.997 3C13.241 3 14.411 3.23633 15.507 3.709C16.6023 4.181 17.5553 4.82167 18.366 5.631C19.1767 6.44033 19.8183 7.39267 20.291 8.488C20.7637 9.58333 21 10.753 21 11.997C21 13.241 20.764 14.411 20.292 15.507C19.82 16.603 19.1787 17.556 18.368 18.366C17.5573 19.176 16.6053 19.8177 15.512 20.291C14.4187 20.7643 13.249 21.0007 12.003 21Z" fill="#F84525"/>
</svg>
