<svg width="24" height="24" viewBox="0 0 24 24" fill="none" xmlns="http://www.w3.org/2000/svg">
<path d="M14.5 12C14.5 11.5059 14.3535 11.0271 14.085 10.6211L10.6211 14.0849C11.0271 14.3534 11.5059 14.5 12 14.5C12.663 14.5 13.2987 14.2364 13.7676 13.7675C14.2364 13.2987 14.5 12.663 14.5 12ZM19.2324 9.4609C19.4194 9.2582 19.7354 9.24501 19.9385 9.4316C20.653 10.0893 21.1833 10.9228 21.4766 11.8486C21.492 11.8974 21.5 11.9488 21.5 12C21.5 12.223 21.4237 12.4832 21.3232 12.7324C21.2171 12.9955 21.0623 13.2976 20.8633 13.6211C20.4647 14.2688 19.8727 15.0236 19.0879 15.7431C17.5153 17.1847 15.1494 18.5 12 18.5C11.6719 18.5 11.3506 18.486 11.0371 18.458C10.7622 18.4332 10.5594 18.1899 10.584 17.915C10.6088 17.6402 10.852 17.4373 11.127 17.4619L11.5566 17.4902C11.7023 17.4965 11.85 17.5 12 17.5C14.8505 17.5 16.9847 16.3152 18.4121 15.0068C19.1271 14.3514 19.6604 13.6685 20.0117 13.0976C20.1875 12.8119 20.3142 12.5589 20.3955 12.3574C20.4536 12.2133 20.4778 12.1136 20.4893 12.0556C20.2753 11.4284 19.9299 10.8554 19.4736 10.3769L19.2617 10.1679L19.1943 10.0918C19.0584 9.90317 19.0688 9.63864 19.2324 9.4609ZM12 5.49996C12.2761 5.49996 12.5 5.72382 12.5 5.99996C12.5 6.2761 12.2761 6.49996 12 6.49996C9.66386 6.49996 7.52521 7.67246 5.94824 9.0068C5.16388 9.67049 4.534 10.3618 4.10449 10.9394C3.88946 11.2286 3.73011 11.4823 3.62695 11.6836C3.549 11.8357 3.51832 11.9286 3.50684 11.9716C3.64501 12.5659 3.92154 13.1199 4.31543 13.5869C4.4931 13.7978 4.46651 14.113 4.25586 14.291C4.04479 14.469 3.72884 14.4425 3.55078 14.2314C3.03394 13.6187 2.67662 12.8877 2.51074 12.1035C2.50355 12.0695 2.5 12.0347 2.5 12C2.5 11.7477 2.61221 11.4687 2.73633 11.2265C2.87142 10.963 3.06382 10.6617 3.30176 10.3418C3.77848 9.70069 4.46127 8.95432 5.30176 8.24313C6.97478 6.82749 9.33619 5.49996 12 5.49996ZM9.5 12C9.5 12.4936 9.64602 12.9721 9.91406 13.3779L13.3779 9.91402C12.9721 9.64598 12.4936 9.49996 12 9.49996C11.337 9.49996 10.7013 9.76354 10.2324 10.2324C9.76358 10.7012 9.5 11.3369 9.5 12ZM15.5 12C15.5 12.9282 15.131 13.8182 14.4746 14.4746C13.8182 15.1309 12.9283 15.5 12 15.5C11.2398 15.5 10.505 15.2528 9.90332 14.8027L5.35352 19.3535C5.15825 19.5487 4.84175 19.5487 4.64648 19.3535C4.45122 19.1582 4.45122 18.8417 4.64648 18.6464L9.19629 14.0957C8.74672 13.4942 8.5 12.7597 8.5 12C8.5 11.0717 8.86901 10.1817 9.52539 9.52535C10.1818 8.86898 11.0717 8.49996 12 8.49996C12.7598 8.49996 13.4943 8.74668 14.0957 9.19625L18.6465 4.64645C18.8417 4.45118 19.1583 4.45118 19.3535 4.64645C19.5488 4.84171 19.5488 5.15822 19.3535 5.35348L14.8027 9.90328C15.2528 10.5049 15.5 11.2397 15.5 12Z" fill="black"/>
</svg>
