<svg width="24" height="24" viewBox="0 0 24 24" fill="none" xmlns="http://www.w3.org/2000/svg">
<path d="M20.5 12C20.5 11.9657 20.4774 11.8424 20.3672 11.6162C20.2639 11.4044 20.1046 11.1446 19.8896 10.8525C19.46 10.2688 18.83 9.58528 18.0449 8.93457C16.4675 7.62715 14.3268 6.5 12 6.5C9.67316 6.5 7.53247 7.62715 5.95508 8.93457C5.17001 9.58528 4.54005 10.2688 4.11035 10.8525C3.89539 11.1446 3.73606 11.4044 3.63281 11.6162C3.5226 11.8424 3.5 11.9657 3.5 12C3.5 12.0343 3.5226 12.1576 3.63281 12.3838C3.73606 12.5956 3.89539 12.8554 4.11035 13.1475C4.54005 13.7312 5.17001 14.4147 5.95508 15.0654C7.53247 16.3729 9.67316 17.5 12 17.5C14.3268 17.5 16.4675 16.3729 18.0449 15.0654C18.83 14.4147 19.46 13.7312 19.8896 13.1475C20.1046 12.8554 20.2639 12.5956 20.3672 12.3838C20.4774 12.1576 20.5 12.0343 20.5 12ZM21.5 12C21.5 12.2657 21.3962 12.5553 21.2666 12.8213C21.13 13.1016 20.9356 13.4138 20.6953 13.7402C20.2141 14.394 19.5262 15.1358 18.6826 15.835C17.0025 17.2275 14.6431 18.5 12 18.5C9.35693 18.5 6.99748 17.2275 5.31738 15.835C4.47383 15.1358 3.78592 14.394 3.30469 13.7402C3.06436 13.4138 2.86996 13.1016 2.7334 12.8213C2.60381 12.5553 2.5 12.2657 2.5 12C2.5 11.7343 2.60381 11.4447 2.7334 11.1787C2.86996 10.8984 3.06436 10.5862 3.30469 10.2598C3.78592 9.60602 4.47383 8.86422 5.31738 8.16504C6.99748 6.77252 9.35693 5.5 12 5.5C14.6431 5.5 17.0025 6.77252 18.6826 8.16504C19.5262 8.86422 20.2141 9.60602 20.6953 10.2598C20.9356 10.5862 21.13 10.8984 21.2666 11.1787C21.3962 11.4447 21.5 11.7343 21.5 12Z" fill="black"/>
<path d="M14.5 12C14.5 11.337 14.2364 10.7013 13.7676 10.2324C13.2987 9.76358 12.663 9.5 12 9.5C11.337 9.5 10.7013 9.76358 10.2324 10.2324C9.76358 10.7013 9.5 11.337 9.5 12C9.5 12.663 9.76358 13.2987 10.2324 13.7676C10.7013 14.2364 11.337 14.5 12 14.5C12.663 14.5 13.2987 14.2364 13.7676 13.7676C14.2364 13.2987 14.5 12.663 14.5 12ZM15.5 12C15.5 12.9283 15.131 13.8182 14.4746 14.4746C13.8182 15.131 12.9283 15.5 12 15.5C11.0717 15.5 10.1818 15.131 9.52539 14.4746C8.86901 13.8182 8.5 12.9283 8.5 12C8.5 11.0717 8.86901 10.1818 9.52539 9.52539C10.1818 8.86901 11.0717 8.5 12 8.5C12.9283 8.5 13.8182 8.86901 14.4746 9.52539C15.131 10.1818 15.5 11.0717 15.5 12Z" fill="black"/>
</svg>
