<svg width="24" height="24" viewBox="0 0 24 24" fill="none" xmlns="http://www.w3.org/2000/svg">
<path d="M14 11C14 10.4696 13.7891 9.96101 13.4141 9.58594C13.039 9.21087 12.5304 9 12 9C11.4696 9 10.961 9.21087 10.5859 9.58594C10.2109 9.96101 10 10.4696 10 11C10 11.5304 10.2109 12.039 10.5859 12.4141C10.961 12.7891 11.4696 13 12 13C12.5304 13 13.039 12.7891 13.4141 12.4141C13.7891 12.039 14 11.5304 14 11ZM16 11C16 12.0609 15.5783 13.078 14.8281 13.8281C14.078 14.5783 13.0609 15 12 15C10.9391 15 9.92202 14.5783 9.17188 13.8281C8.42173 13.078 8 12.0609 8 11C8 9.93913 8.42173 8.92202 9.17188 8.17188C9.92202 7.42173 10.9391 7 12 7C13.0609 7 14.078 7.42173 14.8281 8.17188C15.5783 8.92202 16 9.93913 16 11Z" fill="black"/>
<path d="M11.9999 2.00024C13.7799 2.00024 15.5199 2.52799 16.9999 3.51685C18.4799 4.50571 19.6332 5.91149 20.3144 7.55591C20.9956 9.20042 21.1743 11.0103 20.8271 12.7561C20.4798 14.5018 19.6228 16.1059 18.3642 17.3645L14.121 21.6067V21.6077C13.5586 22.1695 12.7959 22.4845 12.0009 22.4846C11.2058 22.4846 10.4423 22.1696 9.87981 21.6077V21.6067L5.63567 17.3645C4.37709 16.1059 3.52004 14.5018 3.17278 12.7561C2.82555 11.0103 3.00428 9.20042 3.68548 7.55591C4.36669 5.91149 5.51996 4.50572 6.99993 3.51685C8.47994 2.52799 10.22 2.00024 11.9999 2.00024ZM11.9999 4.00024C10.6156 4.00024 9.26235 4.41086 8.11126 5.17993C6.96012 5.94909 6.06296 7.04247 5.53313 8.32153C5.00334 9.60053 4.86468 11.0077 5.1347 12.3655C5.40473 13.7232 6.071 14.9705 7.04974 15.9495L11.2939 20.1926L11.3671 20.259C11.545 20.4046 11.7691 20.4846 12.0009 20.4846C12.2657 20.4845 12.5196 20.3797 12.707 20.1926L16.9501 15.9495C17.9289 14.9705 18.5951 13.7232 18.8652 12.3655C19.1352 11.0077 18.9965 9.60053 18.4667 8.32153C17.9369 7.04247 17.0397 5.94909 15.8886 5.17993C14.7375 4.41086 13.3843 4.00024 11.9999 4.00024Z" fill="black"/>
</svg>
