<svg width="24" height="24" viewBox="0 0 24 24" fill="none" xmlns="http://www.w3.org/2000/svg">
<path d="M13 8V6C13 5.73478 12.8946 5.48051 12.707 5.29297C12.5429 5.12883 12.3276 5.02757 12.0986 5.00488L12 5H5C4.73478 5 4.48051 5.10543 4.29297 5.29297C4.10543 5.48051 4 5.73478 4 6V18C4 18.2652 4.10543 18.5195 4.29297 18.707C4.48051 18.8946 4.73478 19 5 19H12C12.2652 19 12.5195 18.8946 12.707 18.707C12.8946 18.5195 13 18.2652 13 18V16C13 15.4477 13.4477 15 14 15C14.5523 15 15 15.4477 15 16V18C15 18.7957 14.6837 19.5585 14.1211 20.1211C13.5585 20.6837 12.7957 21 12 21H5C4.20435 21 3.44152 20.6837 2.87891 20.1211C2.3163 19.5585 2 18.7956 2 18V6C2 5.20435 2.3163 4.44152 2.87891 3.87891C3.44152 3.3163 4.20435 3 5 3H12C12.7956 3 13.5585 3.3163 14.1211 3.87891C14.6837 4.44152 15 5.20435 15 6V8C15 8.55228 14.5523 9 14 9C13.4477 9 13 8.55228 13 8Z" fill="black"/>
<path d="M17.293 8.29289C17.6835 7.90237 18.3165 7.90237 18.707 8.29289L21.707 11.2929C21.993 11.5789 22.0786 12.0091 21.9238 12.3827C21.769 12.7563 21.4044 12.9999 21 12.9999H9C8.44772 12.9999 8 12.5522 8 11.9999C8 11.4476 8.44772 10.9999 9 10.9999H18.5859L17.293 9.70696C16.9024 9.31643 16.9024 8.68342 17.293 8.29289Z" fill="black"/>
<path d="M20.2929 11.2929C20.6834 10.9024 21.3164 10.9024 21.707 11.2929C22.0975 11.6834 22.0975 12.3164 21.707 12.707L18.707 15.707C18.3164 16.0975 17.6834 16.0975 17.2929 15.707C16.9024 15.3164 16.9024 14.6834 17.2929 14.2929L20.2929 11.2929Z" fill="black"/>
</svg>
