<svg width="24" height="24" viewBox="0 0 24 24" fill="none" xmlns="http://www.w3.org/2000/svg">
<path d="M20 7C20 6.73478 19.8946 6.48051 19.707 6.29297C19.5429 6.12883 19.3276 6.02757 19.0986 6.00488L19 6H5C4.73478 6 4.48051 6.10543 4.29297 6.29297C4.10543 6.48051 4 6.73478 4 7V17C4 17.2652 4.10543 17.5195 4.29297 17.707C4.48051 17.8946 4.73478 18 5 18H19C19.2652 18 19.5195 17.8946 19.707 17.707C19.8946 17.5195 20 17.2652 20 17V7ZM22 17C22 17.7957 21.6837 18.5585 21.1211 19.1211C20.5585 19.6837 19.7957 20 19 20H5C4.20435 20 3.44152 19.6837 2.87891 19.1211C2.3163 18.5585 2 17.7956 2 17V7C2 6.20435 2.3163 5.44152 2.87891 4.87891C3.44152 4.3163 4.20435 4 5 4H19C19.7956 4 20.5585 4.3163 21.1211 4.87891C21.6837 5.44152 22 6.20435 22 7V17Z" fill="black"/>
<path d="M20.4454 6.16806C20.9049 5.86171 21.5258 5.98587 21.8321 6.4454C22.1385 6.90493 22.0143 7.52577 21.5548 7.83212L12.5548 13.8321C12.2189 14.0561 11.7813 14.0561 11.4454 13.8321L2.4454 7.83212C1.98587 7.52577 1.86171 6.90493 2.16806 6.4454C2.47441 5.98587 3.09525 5.86171 3.55478 6.16806L12.0001 11.7979L20.4454 6.16806Z" fill="black"/>
</svg>
