<svg width="24" height="24" viewBox="0 0 24 24" fill="none" xmlns="http://www.w3.org/2000/svg">
<path d="M19 15.6768L15.4189 14.2441L14.3574 16.0146C14.0896 16.4608 13.5243 16.6267 13.0576 16.3965C10.6888 15.2282 8.77181 13.3112 7.60352 10.9424C7.37334 10.4757 7.53919 9.91037 7.98535 9.64258L9.75488 8.58008L8.32324 5H5C4.73478 5 4.48051 5.10543 4.29297 5.29297C4.11027 5.47567 4.00528 5.7217 4 5.97949C4.23111 9.62154 5.78311 13.0546 8.36426 15.6357C10.9452 18.2166 14.3779 19.7677 18.0195 19.999C18.2777 19.994 18.5241 19.89 18.707 19.707C18.8946 19.5195 19 19.2652 19 19V15.6768ZM21 19C21 19.7957 20.6837 20.5585 20.1211 21.1211C19.5585 21.6837 18.7957 22 18 22C17.9798 22 17.9596 21.9993 17.9395 21.998C13.7949 21.7462 9.88623 19.9858 6.9502 17.0498C4.01416 14.1138 2.25382 10.2051 2.00195 6.06055C2.00073 6.04039 2 6.0202 2 6C2 5.20435 2.3163 4.44152 2.87891 3.87891C3.44152 3.3163 4.20435 3 5 3H9C9.4089 3 9.77685 3.24925 9.92871 3.62891L11.9287 8.62891C12.1108 9.08449 11.9353 9.60493 11.5146 9.85742L9.8418 10.8604C10.6656 12.204 11.7951 13.3333 13.1387 14.1572L14.1426 12.4854L14.1934 12.4092C14.4603 12.0442 14.9441 11.9007 15.3711 12.0713L20.3711 14.0713C20.7508 14.2232 21 14.5911 21 15V19Z" fill="black"/>
</svg>
