<svg width="24" height="24" viewBox="0 0 24 24" fill="none" xmlns="http://www.w3.org/2000/svg">
<path d="M8.61603 20.0002C8.17136 20.0002 7.79103 19.8419 7.47503 19.5252C7.15903 19.2086 7.00069 18.8289 7.00003 18.3862V16.0002H5.19203C4.74803 16.0002 4.36803 15.8419 4.05203 15.5252C3.73603 15.2086 3.57769 14.8286 3.57703 14.3852V10.6152C3.57703 10.0486 3.76936 9.5739 4.15403 9.19123C4.53869 8.80723 5.01303 8.61523 5.57703 8.61523H18.423C18.9897 8.61523 19.4647 8.80723 19.848 9.19123C20.2314 9.57523 20.423 10.0499 20.423 10.6152V14.3852C20.423 14.8292 20.265 15.2092 19.949 15.5252C19.633 15.8412 19.2527 15.9996 18.808 16.0002H17V18.3852C17 18.8292 16.8417 19.2092 16.525 19.5252C16.2084 19.8412 15.8284 19.9996 15.385 20.0002H8.61603ZM17 7.84623H7.00003V6.22723C7.00003 5.78257 7.15836 5.40257 7.47503 5.08723C7.79103 4.77257 8.17103 4.61523 8.61503 4.61523H15.385C15.829 4.61523 16.209 4.77357 16.525 5.09023C16.8417 5.4069 17 5.7869 17 6.23023V7.84623ZM17.616 12.1162C17.8994 12.1162 18.1367 12.0202 18.328 11.8282C18.5194 11.6362 18.6154 11.3989 18.616 11.1162C18.6167 10.8336 18.5207 10.5959 18.328 10.4032C18.1354 10.2106 17.898 10.1146 17.616 10.1152C17.334 10.1159 17.0964 10.2119 16.903 10.4032C16.7097 10.5946 16.614 10.8322 16.616 11.1162C16.618 11.4002 16.7137 11.6376 16.903 11.8282C17.0924 12.0189 17.33 12.1149 17.616 12.1162ZM8.61603 19.0002H15.385C15.5644 19.0002 15.7117 18.9426 15.827 18.8272C15.9424 18.7119 16 18.5646 16 18.3852V15.0772C16 14.8972 15.9424 14.7499 15.827 14.6352C15.7117 14.5199 15.5644 14.4622 15.385 14.4622H8.61503C8.43569 14.4622 8.28836 14.5196 8.17303 14.6342C8.05769 14.7502 8.00003 14.8979 8.00003 15.0772V18.3852C8.00003 18.5646 8.05769 18.7119 8.17303 18.8272C8.28836 18.9426 8.43603 19.0002 8.61603 19.0002Z" fill="#F84525"/>
</svg>
