<svg width="24" height="24" viewBox="0 0 24 24" fill="none" xmlns="http://www.w3.org/2000/svg">
<path d="M7 8C7 6.88503 7.51772 5.85314 8.37402 5.11914C9.22559 4.38923 10.3521 4 11.5 4H12.5C13.6479 4 14.7744 4.38923 15.626 5.11914C16.4823 5.85314 17 6.88503 17 8H16.999C17.035 8.84645 16.8035 9.68294 16.333 10.3887C15.8689 11.0849 15.1974 11.6143 14.416 11.9092C14.0459 12.0855 13.6714 12.4462 13.3936 13.002C13.1144 13.5604 12.9689 14.248 12.999 14.957C13.0225 15.5087 12.5945 15.9753 12.043 15.999C11.4913 16.0225 11.0247 15.5945 11.001 15.043C10.9575 14.0208 11.1623 12.9918 11.6045 12.1074C12.0459 11.2246 12.7212 10.4952 13.5752 10.0947L13.668 10.0566C14.077 9.91283 14.4285 9.64002 14.6689 9.2793C14.9094 8.91859 15.0265 8.48946 15.002 8.05664C15.0009 8.03778 15 8.01889 15 8C15 7.52368 14.7806 7.02891 14.3242 6.6377C13.863 6.24241 13.2086 6 12.5 6H11.5C10.7914 6 10.137 6.24241 9.67578 6.6377C9.21936 7.02891 9 7.52368 9 8C9 8.55228 8.55228 9 8 9C7.44772 9 7 8.55228 7 8Z" fill="black"/>
<path d="M11 19.0098V19C11 18.4477 11.4477 18 12 18C12.5523 18 13 18.4477 13 19V19.0098C13 19.5621 12.5523 20.0098 12 20.0098C11.4477 20.0098 11 19.5621 11 19.0098Z" fill="black"/>
</svg>
