<svg width="24" height="24" viewBox="0 0 24 24" fill="none" xmlns="http://www.w3.org/2000/svg">
<path d="M20.6378 3.0683C20.9862 2.93282 21.3808 3.00278 21.6612 3.24994C21.9415 3.49706 22.0604 3.87958 21.9698 4.24213L17.9698 20.2421C17.8824 20.5916 17.6139 20.8676 17.2667 20.9638C16.9196 21.0598 16.5477 20.9616 16.2931 20.707L12.1075 16.5214L9.79989 19.5996C9.57673 19.8971 9.20705 20.0468 8.83993 19.9872C8.47289 19.9277 8.16953 19.6691 8.05184 19.3163L6.1827 13.7089L2.55282 11.8945C2.19918 11.7177 1.98291 11.349 2.00106 10.954C2.0194 10.5589 2.26914 10.2117 2.63778 10.0683L20.6378 3.0683ZM5.46395 11.1132L7.44735 12.1054L7.53329 12.1542C7.72784 12.2769 7.87489 12.4635 7.94832 12.6835L9.34481 16.873L10.6798 15.0937L10.2931 14.707C9.90253 14.3164 9.90253 13.6834 10.2931 13.2929L14.2931 9.29291C14.6836 8.90239 15.3166 8.90239 15.7071 9.29291C16.0976 9.68344 16.0976 10.3164 15.7071 10.707L12.4141 13.9999L16.4581 18.0439L19.5616 5.63178L5.46395 11.1132Z" fill="black"/>
</svg>
