<svg width="24" height="24" viewBox="0 0 24 24" fill="none" xmlns="http://www.w3.org/2000/svg">
<path d="M15 10C15 9.62093 15.2145 9.27471 15.5537 9.10547C15.8929 8.93624 16.2987 8.97323 16.6016 9.20117C17.6137 9.96287 18.7729 10.4966 20 10.7754V8.70801C18.8904 8.37676 17.8749 7.77531 17.0498 6.9502C16.2247 6.12508 15.6233 5.10962 15.292 4H13V14.5C13 15.0966 12.8472 15.683 12.5567 16.2041C12.2661 16.7252 11.8474 17.1639 11.3399 17.4775C10.8324 17.7911 10.2531 17.9693 9.65725 17.9961C9.06128 18.0229 8.46819 17.8977 7.93459 17.6309C7.40098 17.3641 6.94457 16.9646 6.60842 16.4717C6.2724 15.9789 6.06728 15.4085 6.0137 14.8145C5.96012 14.2203 6.06021 13.6222 6.30276 13.0771C6.47266 12.6954 6.70968 12.3493 7.00002 12.0527V9.60254C6.4778 9.8692 5.99757 10.217 5.58206 10.6387C4.85702 11.3746 4.35345 12.3 4.12991 13.3086C3.9064 14.3172 3.97213 15.3684 4.31838 16.3418C4.66473 17.3153 5.2784 18.1716 6.08889 18.8125C6.89926 19.4533 7.87348 19.8532 8.90041 19.9658C9.92753 20.0784 10.9664 19.8994 11.8965 19.4492C12.8263 18.9991 13.6103 18.296 14.1592 17.4209C14.7081 16.5456 14.9998 15.5332 15 14.5V10ZM17 14.5C16.9997 15.909 16.6021 17.2897 15.8535 18.4834C15.105 19.6768 14.0356 20.6352 12.7676 21.249C11.4993 21.8628 10.0833 22.1076 8.68264 21.9541C7.28213 21.8006 5.95282 21.2557 4.84768 20.3818C3.74254 19.5079 2.9059 18.3401 2.43362 17.0127C1.96136 15.6853 1.87294 14.2515 2.17776 12.876C2.48262 11.5004 3.1684 10.238 4.15725 9.23438C5.14618 8.23074 6.39859 7.52632 7.76956 7.20117C8.06704 7.1307 8.38031 7.20004 8.62014 7.38965C8.85998 7.57927 8.99997 7.86809 9.00002 8.17383V12.5C9.00002 12.8148 8.85144 13.111 8.59963 13.2998C8.39516 13.4532 8.23383 13.6571 8.12991 13.8906C8.02604 14.1242 7.98293 14.3802 8.00588 14.6348C8.02884 14.8893 8.11683 15.1336 8.26077 15.3447C8.40483 15.556 8.60044 15.7275 8.82913 15.8418C9.05781 15.9561 9.31199 16.0095 9.56741 15.998C9.82283 15.9866 10.0716 15.9108 10.2891 15.7764C10.5065 15.642 10.6861 15.4537 10.8106 15.2305C10.9039 15.063 10.9641 14.8795 10.9883 14.6904L11 14.5V3C11 2.44772 11.4477 2 12 2H16.083L16.1739 2.00391C16.6217 2.04443 16.9929 2.38221 17.0694 2.83301C17.2429 3.85677 17.7306 4.80091 18.4649 5.53516C19.1991 6.2694 20.1433 6.75709 21.167 6.93066C21.648 7.01218 22 7.4292 22 7.91699V11.9512C22 12.2335 21.8802 12.5029 21.6709 12.6924C21.4617 12.8817 21.1822 12.9741 20.9014 12.9463C19.5352 12.8108 18.2126 12.4195 17 11.7998V14.5Z" fill="black"/>
</svg>
