<svg width="20" height="20" viewBox="0 0 20 20" fill="none" xmlns="http://www.w3.org/2000/svg">
<path d="M17.7701 1.92684C19.5009 3.37135 20.4487 6.53366 19.7894 11.5699C19.1712 16.411 15.2975 16.8795 14.6381 17.1137C14.3084 17.1918 11.7122 17.8165 8.33297 17.5432C7.96208 17.9726 7.46756 18.4801 7.09667 18.8706C6.43731 19.5342 6.06642 20.1589 5.36584 19.9637C4.7889 19.7685 4.83011 18.9486 4.83011 18.9486V16.9576C-0.115097 15.6302 -0.0326771 10.7501 0.00853297 8.17337C0.0497431 5.55764 0.585474 3.48848 2.11025 2.04396C4.83011 -0.298484 10.3935 0.0138427 10.3935 0.0138427C15.0914 0.0138427 17.2344 1.49739 17.7701 1.92684ZM18.3058 11.1795C18.8828 7.00215 18.141 4.15217 16.6574 2.9419C16.2041 2.59054 14.3084 1.41931 10.3111 1.41931C10.3111 1.41931 5.5719 1.10699 3.26413 3.09807C1.98662 4.30833 1.57452 6.06517 1.53331 8.25145C1.4921 10.3987 1.24484 14.537 5.40705 15.6302C5.40705 15.6302 5.40705 18.7144 5.40705 18.9877C5.40705 19.4171 5.65431 19.4171 5.86037 19.2219C6.51973 18.5582 8.66265 16.1377 8.66265 16.1377C11.5474 16.2939 13.8139 15.7473 14.0612 15.7083C14.6381 15.513 17.8113 15.2398 18.3058 11.1795ZM12.5776 8.05625C12.6188 8.36858 12.0831 8.40762 12.0831 8.05625C12.0007 7.19735 11.5886 6.80694 10.7232 6.72886C10.3523 6.72886 10.3935 6.22133 10.7644 6.22133C11.9182 6.29941 12.5364 6.92407 12.5776 8.05625ZM13.443 8.4857C13.4842 6.84598 12.3716 5.5186 10.3111 5.40147C9.94016 5.36243 9.98137 4.8549 10.3523 4.89394C12.7425 5.05011 14.02 6.61174 13.9788 8.4857C13.9788 8.83707 13.443 8.79803 13.443 8.4857ZM15.3799 8.99323C15.3799 9.3446 14.8442 9.3446 14.8442 8.99323C14.803 5.83092 12.5776 4.11313 9.85774 4.07409C9.52806 4.07409 9.52806 3.56656 9.85774 3.56656C12.9073 3.6056 15.3387 5.59668 15.3799 8.99323ZM14.8854 12.8192V12.8583C14.4733 13.6 13.6079 14.4199 12.7837 14.1466H12.7425C11.877 13.9124 9.85774 12.8973 8.53902 11.9213C7.87966 11.4138 7.26151 10.8281 6.8082 10.2816C6.3961 9.77405 5.94279 9.18843 5.53068 8.44666C4.66527 6.96311 4.45922 6.26037 4.45922 6.26037C4.17075 5.47956 5.03616 4.6597 5.81916 4.26929H5.86037C6.23126 4.07409 6.60215 4.11313 6.8082 4.42545C6.8082 4.42545 7.34393 4.97203 7.54998 5.28435C7.75603 5.5186 8.0445 5.94805 8.16813 6.18229C8.41539 6.61174 8.29176 7.04119 8.0445 7.23639L7.54998 7.6268C7.30272 7.82201 7.30272 8.17337 7.30272 8.17337C7.30272 8.17337 8.0445 10.7891 10.8056 11.4528C10.8056 11.4528 11.1765 11.4918 11.3825 11.2576L11.7534 10.7891C11.9595 10.5549 12.4128 10.3987 12.8661 10.6329C13.4842 10.9453 14.226 11.4528 14.7617 11.9213C15.0502 12.1555 15.0914 12.4679 14.8854 12.8192Z" fill="black"/>
</svg>
