<svg width="24" height="24" viewBox="0 0 24 24" fill="none" xmlns="http://www.w3.org/2000/svg">
<path d="M11.843 2.01796C14.2781 1.97783 16.6443 2.82813 18.4973 4.40858C20.3502 5.98908 21.5629 8.19193 21.9074 10.6029C22.2518 13.0137 21.7044 15.4673 20.3683 17.5033C19.0321 19.5395 16.9985 21.0181 14.6496 21.6615C12.4091 22.2752 10.0294 22.087 7.9162 21.1391L3.17596 21.9848C2.81342 22.0494 2.44446 21.9093 2.216 21.6205C1.98757 21.3314 1.93645 20.9399 2.08319 20.6019L3.51678 17.2973C2.33765 15.4012 1.82355 13.1595 2.06756 10.9291C2.33251 8.50822 3.47185 6.26695 5.27167 4.62636C7.0715 2.9859 9.40801 2.05811 11.843 2.01796ZM11.8762 4.01796C9.92804 4.05006 8.05828 4.79232 6.61835 6.10487C5.17855 7.41739 4.26676 9.21016 4.05487 11.1469C3.84298 13.0837 4.34588 15.0316 5.46796 16.6244C5.66858 16.9094 5.70625 17.2783 5.56756 17.598L4.65936 19.6879L7.87518 19.1156L8.03241 19.1C8.18986 19.0972 8.34663 19.1317 8.48944 19.2016C10.2393 20.0583 12.2422 20.2475 14.1213 19.7328C16.0004 19.2181 17.6275 18.0355 18.6965 16.4066C19.7655 14.7777 20.2025 12.8139 19.9269 10.8851C19.6513 8.95649 18.6817 7.19439 17.1994 5.93007C15.7171 4.66577 13.8242 3.98589 11.8762 4.01796Z" fill="black"/>
<path d="M11 10C11 10.3978 10.8419 10.7792 10.5605 11.0605C10.4597 11.1614 10.3453 11.245 10.2227 11.3125C10.419 11.8776 10.7408 12.397 11.1719 12.8281C11.6027 13.2589 12.1218 13.58 12.6865 13.7764C12.754 13.6538 12.8387 13.5402 12.9395 13.4395L13.0498 13.3398C13.3167 13.1212 13.652 13 14 13H15C15.348 13 15.6833 13.1212 15.9502 13.3398L16.0605 13.4395L16.1602 13.5498C16.3788 13.8167 16.5 14.152 16.5 14.5C16.5 14.8978 16.3419 15.2792 16.0605 15.5605C15.7792 15.8419 15.3978 16 15 16H14L13.7021 15.9922C12.2193 15.9185 10.8126 15.297 9.75781 14.2422C8.63259 13.117 8 11.5913 8 10V9C8 8.60218 8.15815 8.22076 8.43945 7.93945C8.72076 7.65815 9.10218 7.5 9.5 7.5C9.89782 7.5 10.2792 7.65815 10.5605 7.93945C10.8419 8.22076 11 8.60218 11 9V10Z" fill="black"/>
</svg>
