<svg width="24" height="24" viewBox="0 0 24 24" fill="none" xmlns="http://www.w3.org/2000/svg">
<path d="M4.84596 20C4.38596 20 4.00163 19.846 3.69296 19.538C3.38429 19.23 3.23029 18.8457 3.23096 18.385V5.615C3.23096 5.155 3.38496 4.771 3.69296 4.463C4.00096 4.155 4.38529 4.00067 4.84596 4H17.616C18.076 4 18.46 4.15433 18.768 4.463C19.076 4.77167 19.2303 5.156 19.231 5.616V7.769H20.269C20.411 7.769 20.5296 7.817 20.625 7.913C20.721 8.009 20.769 8.128 20.769 8.27C20.769 8.412 20.721 8.53067 20.625 8.626C20.529 8.72133 20.4103 8.769 20.269 8.769H19.231V11.5H20.269C20.411 11.5 20.53 11.548 20.626 11.644C20.722 11.74 20.7696 11.859 20.769 12.001C20.7683 12.143 20.7206 12.2617 20.626 12.357C20.5313 12.4523 20.4123 12.5 20.269 12.5H19.231V15.23H20.269C20.411 15.23 20.53 15.2783 20.626 15.375C20.722 15.4717 20.7696 15.5907 20.769 15.732C20.7683 15.8733 20.7206 15.992 20.626 16.088C20.5313 16.184 20.4123 16.2317 20.269 16.231H19.231V18.384C19.231 18.8447 19.0766 19.229 18.768 19.537C18.4593 19.845 18.0753 19.9993 17.616 20H4.84596ZM7.80896 16.23H10.235C10.4643 16.23 10.6556 16.153 10.809 15.999C10.9623 15.8437 11.039 15.6517 11.039 15.423V14C11.039 13.7713 10.9613 13.5797 10.806 13.425C10.6506 13.2703 10.4586 13.1927 10.23 13.192H7.80296C7.57429 13.192 7.38329 13.2693 7.22996 13.424C7.07663 13.5787 6.99996 13.7707 6.99996 14V15.423C6.99996 15.6517 7.07763 15.8437 7.23296 15.999C7.38829 16.1543 7.58029 16.2317 7.80896 16.231M13.231 9.808H14.654C14.8826 9.808 15.0743 9.73033 15.229 9.575C15.3836 9.41967 15.4613 9.228 15.462 9V8.577C15.462 8.34833 15.3843 8.15633 15.229 8.001C15.0736 7.84567 14.882 7.76833 14.654 7.769H13.23C13.0013 7.769 12.8093 7.84633 12.654 8.001C12.4986 8.15567 12.4213 8.34767 12.422 8.577V9C12.422 9.22867 12.4993 9.42067 12.654 9.576C12.8086 9.73133 13.0006 9.80867 13.23 9.808M7.80796 11.808H10.234C10.4633 11.808 10.6546 11.7303 10.808 11.575C10.9613 11.4203 11.038 11.2283 11.038 10.999V8.572C11.038 8.34333 10.9603 8.15233 10.805 7.999C10.6496 7.84567 10.4576 7.769 10.229 7.769H7.80296C7.57429 7.769 7.38329 7.84667 7.22996 8.002C7.07663 8.15733 6.99996 8.34933 6.99996 8.578V11.004C6.99996 11.2333 7.07763 11.4247 7.23296 11.578C7.38763 11.7313 7.57863 11.808 7.80796 11.808ZM13.231 16.231H14.654C14.8826 16.231 15.0743 16.1533 15.229 15.998C15.3836 15.8427 15.4613 15.651 15.462 15.423V12C15.462 11.7713 15.3843 11.5797 15.229 11.425C15.0736 11.2703 14.882 11.1927 14.654 11.192H13.23C13.0006 11.192 12.8086 11.2693 12.654 11.424C12.4993 11.5787 12.422 11.7707 12.422 12V15.423C12.422 15.6517 12.4993 15.8437 12.654 15.999C12.8086 16.1543 13.0006 16.2317 13.23 16.231" fill="#2B2A29"/>
</svg>
