<svg width="24" height="24" viewBox="0 0 24 24" fill="none" xmlns="http://www.w3.org/2000/svg">
<path d="M21 8C21 7.20435 20.6837 6.44152 20.1211 5.87891C19.5585 5.3163 18.7956 5 18 5H6C5.20435 5 4.44152 5.3163 3.87891 5.87891C3.3163 6.44152 3 7.20435 3 8V16C3 16.7956 3.3163 17.5585 3.87891 18.1211C4.44152 18.6837 5.20435 19 6 19H18C18.7956 19 19.5585 18.6837 20.1211 18.1211C20.6837 17.5585 21 16.7956 21 16V8ZM23 16C23 17.3261 22.4728 18.5975 21.5352 19.5352C20.5975 20.4728 19.3261 21 18 21H6C4.67392 21 3.40253 20.4728 2.46484 19.5352C1.52716 18.5975 1 17.3261 1 16V8C1 6.67392 1.52716 5.40253 2.46484 4.46484C3.40253 3.52716 4.67392 3 6 3H18C19.3261 3 20.5975 3.52716 21.5352 4.46484C22.4728 5.40253 23 6.67392 23 8V16Z" fill="black"/>
<path d="M9.50684 8.12981C9.82034 7.9523 10.2057 7.95714 10.5146 8.1425L15.5146 11.1425C15.8158 11.3232 16 11.6487 16 11.9999C16 12.3511 15.8158 12.6766 15.5146 12.8573L10.5146 15.8573C10.2057 16.0427 9.82034 16.0475 9.50684 15.87C9.19356 15.6925 9 15.36 9 14.9999V8.99992C9 8.6398 9.19356 8.30737 9.50684 8.12981ZM11 13.2333L13.0557 11.9999L11 10.7655V13.2333Z" fill="black"/>
</svg>
