<svg width="24" height="24" viewBox="0 0 24 24" fill="none" xmlns="http://www.w3.org/2000/svg">
<path d="M17.1465 17.1465C17.3417 16.9512 17.6583 16.9512 17.8535 17.1465L21.3535 20.6465C21.5488 20.8417 21.5488 21.1583 21.3535 21.3535C21.1583 21.5488 20.8417 21.5488 20.6465 21.3535L17.1465 17.8535C16.9512 17.6583 16.9512 17.3417 17.1465 17.1465ZM16.5 10C16.5 8.27609 15.8157 6.62231 14.5967 5.40332C13.3777 4.18433 11.7239 3.5 10 3.5C8.27609 3.5 6.62231 4.18433 5.40332 5.40332C4.18433 6.62231 3.5 8.27609 3.5 10C3.5 10.8536 3.66846 11.6987 3.99512 12.4873C4.32177 13.2759 4.79974 13.9931 5.40332 14.5967C6.0069 15.2003 6.72408 15.6782 7.5127 16.0049C8.30131 16.3315 9.14641 16.5 10 16.5L10.3193 16.4922C11.0638 16.4556 11.7972 16.2907 12.4873 16.0049C13.2759 15.6782 13.9931 15.2003 14.5967 14.5967C15.2003 13.9931 15.6782 13.2759 16.0049 12.4873C16.3315 11.6987 16.5 10.8536 16.5 10ZM9.5 13V10.5H7C6.72386 10.5 6.5 10.2761 6.5 10C6.5 9.72386 6.72386 9.5 7 9.5H9.5V7C9.5 6.72386 9.72386 6.5 10 6.5C10.2761 6.5 10.5 6.72386 10.5 7V9.5H13C13.2761 9.5 13.5 9.72386 13.5 10C13.5 10.2761 13.2761 10.5 13 10.5H10.5V13C10.5 13.2761 10.2761 13.5 10 13.5C9.72386 13.5 9.5 13.2761 9.5 13ZM17.5 10C17.5 10.9849 17.3056 11.9602 16.9287 12.8701C16.5518 13.78 16.0001 14.6073 15.3037 15.3037C14.6073 16.0001 13.78 16.5518 12.8701 16.9287C12.074 17.2585 11.228 17.4489 10.3691 17.4912L10 17.5C9.01509 17.5 8.03982 17.3056 7.12988 16.9287C6.21999 16.5518 5.3927 16.0001 4.69629 15.3037C3.99988 14.6073 3.4482 13.78 3.07129 12.8701C2.69438 11.9602 2.5 10.9849 2.5 10C2.5 8.01088 3.28977 6.10281 4.69629 4.69629C6.10281 3.28977 8.01088 2.5 10 2.5C11.9891 2.5 13.8972 3.28977 15.3037 4.69629C16.7102 6.10281 17.5 8.01088 17.5 10Z" fill="white"/>
</svg>
