<svg width="816" height="816" viewBox="0 0 816 816" fill="none" xmlns="http://www.w3.org/2000/svg">
<path d="M400.86 376.656L424.044 380.679C433.488 382.313 439.792 391.174 438.126 400.466L434.038 423.276C432.376 432.563 423.37 438.77 413.926 437.131L390.742 433.108C381.299 431.469 374.995 422.612 376.66 413.321L380.749 390.511C382.415 381.22 391.417 375.017 400.86 376.656Z" stroke="#F84525" stroke-width="0.786667"/>
<path d="M393.722 362.494L428.655 365.549C442.961 366.802 453.545 379.413 452.293 393.723L449.237 428.652C447.984 442.961 435.374 453.542 421.064 452.293L386.135 449.238C371.825 447.985 361.245 435.37 362.493 421.065L365.549 386.131C366.802 371.826 379.416 361.241 393.722 362.494Z" stroke="#F84525" stroke-width="0.786667"/>
<path d="M382.876 346.393H431.91C452.06 346.393 468.393 362.727 468.393 382.876V431.91C468.393 452.06 452.06 468.393 431.91 468.393H382.876C362.727 468.393 346.393 452.06 346.393 431.91V382.876C346.393 362.727 362.727 346.393 382.876 346.393Z" stroke="#F84525" stroke-opacity="0.8" stroke-width="0.786667"/>
<path d="M368.808 329.27L433.815 323.581C460.58 321.239 484.175 341.038 486.521 367.808L492.205 432.815C494.547 459.58 474.748 483.179 447.983 485.521L382.976 491.205C356.207 493.547 332.611 473.748 330.27 446.983L324.581 381.976C322.24 355.206 342.039 331.611 368.808 329.27Z" stroke="#F84525" stroke-opacity="0.8" stroke-width="0.786667"/>
<path d="M348.282 311.961L431.098 297.358C465.242 291.337 497.8 314.136 503.824 348.284L518.429 431.102C524.449 465.248 501.651 497.81 467.502 503.83L384.687 518.428C350.542 524.452 317.981 501.653 311.961 467.508L297.357 384.69C291.337 350.544 314.136 317.982 348.282 311.961Z" stroke="#F84525" stroke-opacity="0.7" stroke-width="0.786667"/>
<path d="M323.452 294.204L424.679 267.081C466.451 255.888 509.393 280.678 520.58 322.452L547.705 423.676C558.9 465.452 534.112 508.389 492.336 519.585L391.109 546.705C349.337 557.9 306.397 533.108 295.204 491.336L268.081 390.11C256.888 348.334 281.678 305.397 323.452 294.204Z" stroke="#F84525" stroke-opacity="0.7" stroke-width="0.786667"/>
<path d="M292.655 279.036L413.431 235.199C463.309 217.096 518.457 242.74 536.611 292.477L580.573 412.918C598.723 462.652 573.005 517.649 523.132 535.748L402.354 579.588C352.476 597.691 297.328 572.045 279.175 522.307L235.216 401.868C217.062 352.134 242.778 297.138 292.655 279.036Z" stroke="#F84525" stroke-opacity="0.6" stroke-width="0.786667"/>
<path d="M256.92 266.102L396.452 201.187C454.099 174.366 522.625 199.251 549.51 256.768L614.574 395.979C641.459 453.493 616.514 521.863 558.863 548.685L419.334 613.601C361.684 640.419 293.158 615.536 266.276 558.017L201.212 418.809C174.329 361.29 199.271 292.922 256.92 266.102Z" stroke="#F84525" stroke-opacity="0.6" stroke-width="0.786667"/>
<path d="M215.51 256.647L373.104 165.662C438.24 128.055 521.532 150.372 559.141 215.51L650.125 373.104C687.733 438.24 665.413 521.532 600.277 559.14L442.684 650.125C377.548 687.733 294.255 665.413 256.647 600.277L165.662 442.684C128.055 377.548 150.372 294.255 215.51 256.647Z" stroke="#F84525" stroke-opacity="0.5" stroke-width="0.786667"/>
<path d="M169.117 251.78L342.862 130.123C414.698 79.8235 513.706 97.2811 564.01 169.117L685.664 342.861C735.964 414.697 718.504 513.71 646.672 564.006L472.926 685.664C401.089 735.964 302.08 718.505 251.78 646.668L130.123 472.925C79.8232 401.088 97.2816 302.08 169.117 251.78Z" stroke="#F84525" stroke-opacity="0.5" stroke-width="0.786667"/>
<path d="M117.831 251.777L305.224 94.3136C382.72 29.1934 498.258 39.3159 563.288 116.923L720.532 304.581C785.562 382.189 775.454 497.894 697.955 563.007L510.563 720.477C433.064 785.59 317.523 775.472 252.495 697.864L95.2529 510.204C30.2248 432.599 40.333 316.897 117.831 251.777Z" stroke="#F84525" stroke-opacity="0.4" stroke-width="0.786667"/>
<path d="M61.7852 259.679L259.678 61.7858C341.535 -20.0709 474.251 -20.0709 556.105 61.7858L753.997 259.679C835.859 341.537 835.859 474.249 753.997 556.103L556.105 754.003C474.251 835.857 341.535 835.857 259.678 754.003L61.7852 556.103C-20.0706 474.249 -20.0706 341.537 61.7852 259.679Z" stroke="#F84525" stroke-opacity="0.3" stroke-width="0.786667"/>
</svg>
