<svg width="20" height="20" viewBox="0 0 20 20" fill="none" xmlns="http://www.w3.org/2000/svg">
<path opacity="0.987" fill-rule="evenodd" clip-rule="evenodd" d="M9.01131 1.32594C9.91756 1.22469 10.4538 1.22469 11.4276 1.32594C13.1512 1.58106 14.7491 2.37779 15.9901 3.60094C15.1515 4.39361 14.3239 5.19785 13.5076 6.01344C11.9442 4.68844 10.1992 4.3826 8.27256 5.09594C6.85923 5.74594 5.87506 6.79927 5.32006 8.25594C4.41311 7.58073 3.51797 6.88979 2.63506 6.18344C2.5737 6.15114 2.50362 6.13931 2.43506 6.14969C3.83756 3.44552 6.02923 1.83719 9.01006 1.32469" fill="#F44336"/>
<path opacity="0.997" fill-rule="evenodd" clip-rule="evenodd" d="M2.43233 6.15047C2.50316 6.13964 2.57024 6.15089 2.63358 6.18422C3.51649 6.89057 4.41163 7.58151 5.31858 8.25672C5.17586 8.82429 5.08589 9.40384 5.04983 9.98797C5.08066 10.553 5.17024 11.1076 5.31858 11.6517L2.49983 13.8955C1.27233 11.3305 1.24983 8.7488 2.43233 6.15047Z" fill="#FFC107"/>
<path opacity="0.999" fill-rule="evenodd" clip-rule="evenodd" d="M15.8561 16.6124C14.9784 15.8384 14.0596 15.1123 13.1036 14.4374C14.0619 13.7608 14.6436 12.8324 14.8486 11.6524H10.1523V8.39117C12.8607 8.36867 15.5678 8.39159 18.2736 8.45992C18.7869 11.2474 18.194 13.7608 16.4948 15.9999C16.2928 16.2147 16.0788 16.4191 15.8561 16.6124Z" fill="#448AFF"/>
<path opacity="0.993" fill-rule="evenodd" clip-rule="evenodd" d="M5.31875 11.6523C6.34375 14.1998 8.22292 15.389 10.9562 15.2198C11.7235 15.131 12.4592 14.863 13.1037 14.4373C14.0604 15.114 14.9779 15.839 15.8562 16.6123C14.4646 17.8629 12.6901 18.6049 10.8225 18.7173C10.3982 18.7513 9.97182 18.7513 9.5475 18.7173C6.36583 18.3423 4.01667 16.7348 2.5 13.8948L5.31875 11.6523Z" fill="#43A047"/>
</svg>
